{
  "accessors": [
    {
      "bufferView": 2,
      "componentType": 5126,
      "count": 1606,
      "max": [
        0.37130364775657654,
        6.150639533996582,
        -2.426396608352661
      ],
      "min": [
        -0.35042980313301086,
        5.07850456237793,
        -3.6372616291046143
      ],
      "type": "VEC3"
    },
    {
      "bufferView": 2,
      "byteOffset": 19272,
      "componentType": 5126,
      "count": 1606,
      "max": [
        0.9976750612258911,
        0.9995913505554199,
        0.9986940026283264
      ],
      "min": [
        -0.9996732473373413,
        -0.9993141889572144,
        -0.9999701976776123
      ],
      "type": "VEC3"
    },
    {
      "bufferView": 1,
      "componentType": 5126,
      "count": 1606,
      "max": [
        0.9962906241416931,
        0.9995182752609253
      ],
      "min": [
        0.0013571393210440874,
        -0.007956363260746002
      ],
      "type": "VEC2"
    },
    {
      "bufferView": 1,
      "byteOffset": 12848,
      "componentType": 5126,
      "count": 1606,
      "max": [
        0.9962906241416931,
        0.9995182752609253
      ],
      "min": [
        0.0013571393210440874,
        -0.007956363260746002
      ],
      "type": "VEC2"
    },
    {
      "bufferView": 0,
      "componentType": 5125,
      "count": 7674,
      "type": "SCALAR"
    },
    {
      "bufferView": 2,
      "byteOffset": 38544,
      "componentType": 5126,
      "count": 8843,
      "max": [
        5.991905212402344,
        7.693909645080566,
        0.01059412956237793
      ],
      "min": [
        -5.991905212402344,
        -8.144725799560547,
        -5.280550003051758
      ],
      "type": "VEC3"
    },
    {
      "bufferView": 2,
      "byteOffset": 144660,
      "componentType": 5126,
      "count": 8843,
      "max": [
        1.0,
        1.0,
        1.0
      ],
      "min": [
        -1.0,
        -1.0,
        -1.0
      ],
      "type": "VEC3"
    },
    {
      "bufferView": 3,
      "componentType": 5126,
      "count": 8843,
      "max": [
        1.0,
        1.0,
        1.0,
        1.0
      ],
      "min": [
        -1.0,
        -1.0,
        -1.0,
        -1.0
      ],
      "type": "VEC4"
    },
    {
      "bufferView": 1,
      "byteOffset": 25696,
      "componentType": 5126,
      "count": 8843,
      "max": [
        0.9998106956481934,
        0.9990668296813965
      ],
      "min": [
        0.001064445823431015,
        0.0006079673767089844
      ],
      "type": "VEC2"
    },
    {
      "bufferView": 1,
      "byteOffset": 96440,
      "componentType": 5126,
      "count": 8843,
      "max": [
        0.9998106956481934,
        0.9990668296813965
      ],
      "min": [
        0.001064445823431015,
        0.0006079673767089844
      ],
      "type": "VEC2"
    },
    {
      "bufferView": 1,
      "byteOffset": 167184,
      "componentType": 5126,
      "count": 8843,
      "max": [
        0.9998106956481934,
        0.9990668296813965
      ],
      "min": [
        0.001064445823431015,
        0.0006079673767089844
      ],
      "type": "VEC2"
    },
    {
      "bufferView": 1,
      "byteOffset": 237928,
      "componentType": 5126,
      "count": 8843,
      "max": [
        0.9998106956481934,
        0.9990668296813965
      ],
      "min": [
        0.001064445823431015,
        0.0006079673767089844
      ],
      "type": "VEC2"
    },
    {
      "bufferView": 0,
      "byteOffset": 30696,
      "componentType": 5125,
      "count": 25248,
      "type": "SCALAR"
    },
    {
      "bufferView": 2,
      "byteOffset": 250776,
      "componentType": 5126,
      "count": 143,
      "max": [
        0.4548887610435486,
        4.914270877838135,
        -2.4722704887390137
      ],
      "min": [
        -0.4548887610435486,
        1.5547024011611938,
        -3.162694215774536
      ],
      "type": "VEC3"
    },
    {
      "bufferView": 2,
      "byteOffset": 252492,
      "componentType": 5126,
      "count": 143,
      "max": [
        0.9991793036460876,
        0.47015848755836487,
        -0.03202756121754646
      ],
      "min": [
        -0.9991793632507324,
        -0.21329359710216522,
        -0.9997149705886841
      ],
      "type": "VEC3"
    },
    {
      "bufferView": 1,
      "byteOffset": 308672,
      "componentType": 5126,
      "count": 143,
      "max": [
        0.8505902290344238,
        0.756487250328064
      ],
      "min": [
        0.6388962268829346,
        0.7130236625671387
      ],
      "type": "VEC2"
    },
    {
      "bufferView": 0,
      "byteOffset": 131688,
      "componentType": 5125,
      "count": 624,
      "type": "SCALAR"
    }
  ],
  "asset": {
    "extras": {
      "author": "Yi Tsung Lee (https://sketchfab.com/WTigerTw)",
      "license": "CC-BY-4.0 (http://creativecommons.org/licenses/by/4.0/)",
      "source": "https://sketchfab.com/3d-models/jasdf-f-2a-low-poly-model-e91124b750b74223bd5cb18d03a254cb",
      "title": "JASDF F-2A Low Poly model"
    },
    "generator": "Sketchfab-13.65.0",
    "version": "2.0"
  },
  "bufferViews": [
    {
      "buffer": 0,
      "byteLength": 134184,
      "name": "floatBufferViews",
      "target": 34963
    },
    {
      "buffer": 0,
      "byteLength": 309816,
      "byteOffset": 134184,
      "byteStride": 8,
      "name": "floatBufferViews",
      "target": 34962
    },
    {
      "buffer": 0,
      "byteLength": 254208,
      "byteOffset": 444000,
      "byteStride": 12,
      "name": "floatBufferViews",
      "target": 34962
    },
    {
      "buffer": 0,
      "byteLength": 141488,
      "byteOffset": 698208,
      "byteStride": 16,
      "name": "floatBufferViews",
      "target": 34962
    }
  ],
  "buffers": [
    {
      "byteLength": 839696,
      "uri": "scene.bin"
    }
  ],
  "images": [
    {
      "uri": "textures/PILOT_baseColor.png"
    },
    {
      "uri": "textures/PILOT_metallicRoughness.png"
    },
    {
      "uri": "textures/material_baseColor.png"
    },
    {
      "uri": "textures/material_metallicRoughness.png"
    },
    {
      "uri": "textures/material_normal.png"
    }
  ],
  "materials": [
    {
      "doubleSided": true,
      "name": "PILOT",
      "pbrMetallicRoughness": {
        "baseColorTexture": {
          "index": 0
        },
        "metallicRoughnessTexture": {
          "index": 1
        },
        "roughnessFactor": 0.5470492862454438
      }
    },
    {
      "doubleSided": true,
      "name": "material",
      "normalTexture": {
        "index": 4
      },
      "occlusionTexture": {
        "index": 3
      },
      "pbrMetallicRoughness": {
        "baseColorTexture": {
          "index": 2
        },
        "metallicFactor": 0.32152478940888196,
        "metallicRoughnessTexture": {
          "index": 3
        },
        "roughnessFactor": 0.46171569284782576
      }
    },
    {
      "alphaMode": "BLEND",
      "doubleSided": true,
      "name": "GLASS",
      "pbrMetallicRoughness": {
        "baseColorFactor": [
          0.0,
          0.0,
          0.0,
          0.22400068266874718
        ],
        "metallicFactor": 0.0,
        "roughnessFactor": 0.059428752544769654
      }
    }
  ],
  "meshes": [
    {
      "name": "Object_0",
      "primitives": [
        {
          "attributes": {
            "NORMAL": 1,
            "POSITION": 0,
            "TEXCOORD_0": 2,
            "TEXCOORD_1": 3
          },
          "indices": 4,
          "material": 0,
          "mode": 4
        }
      ]
    },
    {
      "name": "Object_1",
      "primitives": [
        {
          "attributes": {
            "NORMAL": 6,
            "POSITION": 5,
            "TANGENT": 7,
            "TEXCOORD_0": 8,
            "TEXCOORD_1": 9,
            "TEXCOORD_2": 10,
            "TEXCOORD_3": 11
          },
          "indices": 12,
          "material": 1,
          "mode": 4
        }
      ]
    },
    {
      "name": "Object_2",
      "primitives": [
        {
          "attributes": {
            "NORMAL": 14,
            "POSITION": 13,
            "TEXCOORD_0": 15
          },
          "indices": 16,
          "material": 2,
          "mode": 4
        }
      ]
    }
  ],
  "nodes": [
    {
      "children": [
        1
      ],
      "matrix": [
        1.0,
        0.0,
        0.0,
        0.0,
        0.0,
        2.220446049250313e-16,
        -1.0,
        0.0,
        0.0,
        1.0,
        2.220446049250313e-16,
        0.0,
        0.0,
        0.0,
        0.0,
        1.0
      ],
      "name": "Sketchfab_model"
    },
    {
      "children": [
        2
      ],
      "name": "root"
    },
    {
      "children": [
        3,
        5,
        7
      ],
      "matrix": [
        1.0,
        0.0,
        0.0,
        0.0,
        0.0,
        2.220446049250313e-16,
        1.0,
        0.0,
        0.0,
        -1.0,
        2.220446049250313e-16,
        0.0,
        0.0,
        0.0,
        0.0,
        1.0
      ],
      "name": "GLTF_SceneRootNode"
    },
    {
      "children": [
        4
      ],
      "matrix": [
        1.0,
        0.0,
        0.0,
        0.0,
        0.0,
        0.0,
        1.0,
        0.0,
        0.0,
        -1.0,
        0.0,
        0.0,
        -0.0042904750443995,
        -0.6285503506660461,
        -2.0101423263549805,
        1.0
      ],
      "name": "pilot_0"
    },
    {
      "mesh": 0,
      "name": "Object_4"
    },
    {
      "children": [
        6
      ],
      "matrix": [
        1.0,
        0.0,
        0.0,
        0.0,
        0.0,
        0.0,
        1.0,
        0.0,
        0.0,
        -1.0,
        0.0,
        0.0,
        0.0,
        0.0,
        0.0,
        1.0
      ],
      "name": "Fuse.084_2"
    },
    {
      "mesh": 1,
      "name": "Object_6"
    },
    {
      "children": [
        8
      ],
      "matrix": [
        1.0,
        0.0,
        0.0,
        0.0,
        0.0,
        0.0,
        1.0,
        0.0,
        0.0,
        -1.0,
        0.0,
        0.0,
        0.0,
        0.0,
        0.0,
        1.0
      ],
      "name": "Fuse.001_3"
    },
    {
      "mesh": 2,
      "name": "Object_8"
    }
  ],
  "samplers": [
    {
      "magFilter": 9729,
      "minFilter": 9987,
      "wrapS": 10497,
      "wrapT": 10497
    }
  ],
  "scene": 0,
  "scenes": [
    {
      "name": "Sketchfab_Scene",
      "nodes": [
        0
      ]
    }
  ],
  "textures": [
    {
      "sampler": 0,
      "source": 0
    },
    {
      "sampler": 0,
      "source": 1
    },
    {
      "sampler": 0,
      "source": 2
    },
    {
      "sampler": 0,
      "source": 3
    },
    {
      "sampler": 0,
      "source": 4
    }
  ]
}
